<?xml version="1.0" encoding="UTF-8" standalone="no"?>
<!-- Created with Inkscape (http://www.inkscape.org/) -->

<svg
   xmlns:dc="http://purl.org/dc/elements/1.1/"
   xmlns:cc="http://creativecommons.org/ns#"
   xmlns:rdf="http://www.w3.org/1999/02/22-rdf-syntax-ns#"
   xmlns:svg="http://www.w3.org/2000/svg"
   xmlns="http://www.w3.org/2000/svg"
   xmlns:sodipodi="http://sodipodi.sourceforge.net/DTD/sodipodi-0.dtd"
   xmlns:inkscape="http://www.inkscape.org/namespaces/inkscape"
   id="svg3039"
   version="1.1"
   inkscape:version="0.48.4 r9939"
   width="139"
   height="141"
   sodipodi:docname="lyneham.png">
  <metadata
     id="metadata3045">
    <rdf:RDF>
      <cc:Work
         rdf:about="">
        <dc:format>image/svg+xml</dc:format>
        <dc:type
           rdf:resource="http://purl.org/dc/dcmitype/StillImage" />
        <dc:title></dc:title>
      </cc:Work>
    </rdf:RDF>
  </metadata>
  <defs
     id="defs3043" />
  <sodipodi:namedview
     pagecolor="#ffffff"
     bordercolor="#666666"
     borderopacity="1"
     objecttolerance="10"
     gridtolerance="10"
     guidetolerance="10"
     inkscape:pageopacity="0"
     inkscape:pageshadow="2"
     inkscape:window-width="905"
     inkscape:window-height="744"
     id="namedview3041"
     showgrid="false"
     inkscape:zoom="1.6737589"
     inkscape:cx="69.5"
     inkscape:cy="70.5"
     inkscape:window-x="75"
     inkscape:window-y="34"
     inkscape:window-maximized="0"
     inkscape:current-layer="svg3039" />
  <path
     style="fill:#000000"
     d="M 54.148224,140.21281 C 36.003286,137.6504 14.079298,128.42826 3.2954699,118.82203 L 0.8428248,116.63724 11.910145,104.2015 22.977464,91.765758 22.803826,46.461262 22.63019,1.1567719 l 49.999507,0 49.999513,0 0,49.6270701 0,49.627028 7.72341,9.03886 c 4.24789,4.97137 7.72343,9.23239 7.72343,9.4689 0,0.94176 -11.23604,8.08737 -18.17657,11.5594 -18.6821,9.34594 -43.0048,12.94702 -65.751283,9.73478 z m 43.092499,-3.44823 c 9.149407,-2.32307 15.168507,-4.59888 12.359427,-4.67312 -0.65258,-0.0184 -1.69524,-1.49201 -2.31702,-3.27735 -1.36424,-3.91704 -1.36702,-3.96913 -0.21238,-3.96913 0.50498,0 1.20891,1.15959 1.56429,2.57683 0.35539,1.41728 1.35979,2.57685 2.232,2.57685 0.87221,0 1.29944,0.46381 0.94939,1.03075 -0.35004,0.56689 -0.16241,1.03073 0.41696,1.03073 1.64589,0 16.90611,-8.1265 20.20646,-10.76057 2.84482,-2.27044 2.89628,-2.46298 1.28831,-4.8211 -0.92118,-1.35091 -2.84157,-3.77253 -4.26754,-5.3814 l -2.59268,-2.92519 -4.43638,3.01383 c -3.94079,2.67716 -10.84044,6.44412 -11.80314,6.44412 -0.19617,0 -0.35667,-1.39149 -0.35667,-3.09219 0,-2.84678 -0.28605,-3.09219 -3.60427,-3.09219 -3.52718,0 -3.60425,0.0896 -3.60425,4.18377 0,3.08914 0.33678,3.97318 1.28723,3.37887 1.80725,-1.13007 4.32609,-1.42108 3.22395,-0.37252 -1.48193,1.40999 -14.636771,5.1404 -20.601016,5.84203 l -5.535757,0.65122 0,-6.33506 c 0,-6.11171 -0.07397,-6.28932 -2.098833,-5.03789 -1.696506,1.04849 -2.041958,2.18626 -1.802131,5.93546 0.204399,3.1951 0.721039,4.55017 1.660486,4.35508 0.750078,-0.15587 1.087205,0.16481 0.749169,0.71215 -1.399615,2.26667 -34.551321,-0.71495 -34.551321,-3.10752 0,-0.47535 0.724728,-0.58591 1.61051,-0.24583 1.336711,0.51339 1.555555,-0.14927 1.287237,-3.89763 l -0.323266,-4.51618 -6.436186,-0.30702 -6.436187,-0.30702 0,3.1414 c 0,2.10517 0.509521,3.14139 1.544687,3.14139 0.849576,0 1.887685,0.11603 2.30691,0.25764 0.419226,0.14153 1.059509,-1.13383 1.422847,-2.83453 0.639951,-2.99549 0.664426,-2.97132 0.782455,0.77306 0.132644,4.20755 -0.154346,4.38029 -4.663443,2.80696 -2.706975,-0.94452 -2.988149,-1.44315 -2.615479,-4.63833 0.25499,-2.18599 -0.02743,-3.57998 -0.72489,-3.57998 -0.628352,0 -1.142456,1.39147 -1.142456,3.09219 0,3.32822 -0.06717,3.39726 -2.425225,2.49154 -0.86014,-0.33024 -1.311864,-1.25803 -1.003841,-2.06146 0.30802,-0.80344 0.205971,-2.2725 -0.226803,-3.26461 -0.652118,-1.49491 -0.891382,-1.3107 -1.39741,1.0761 l -0.61057,2.87989 -7.057951,-4.26688 -7.057952,-4.26685 -3.983061,4.47918 c -2.1906831,2.46357 -3.9962114,4.77201 -4.0122833,5.12992 -0.052135,1.1608 6.9099393,5.98902 14.7022133,10.19598 8.38594,4.52745 23.358069,9.69283 31.168118,10.75301 2.763289,0.37506 5.228695,0.8867 5.478675,1.13687 0.249975,0.25026 7.500638,0.45496 16.112572,0.45496 13.199057,0 17.210975,-0.39428 25.546483,-2.5107 z m -33.390796,-0.26314 c -0.04717,-1.08174 -0.299394,-1.32366 -0.600712,-0.57618 -0.759678,1.88439 -2.407358,1.57318 -2.407358,-0.45471 0,-1.52785 -0.200187,-1.49604 -1.621118,0.25762 -1.564632,1.93108 -1.601001,1.91098 -1.043851,-0.57605 0.317483,-1.41725 0.583594,-3.15663 0.591328,-3.86527 0.02341,-2.15685 1.887461,-1.43762 2.671281,1.03073 l 0.736433,2.31916 1.035013,-2.31916 c 1.513898,-3.39217 2.77986,-2.83312 2.77986,1.22758 0,3.61035 -1.992403,6.36152 -2.140876,2.95619 z m 3.170666,-1.77871 c 0,-3.4797 1.358515,-4.86812 3.861711,-3.9467 1.822443,0.67077 1.604457,4.37615 -0.257463,4.37615 -0.849576,0 -1.544684,0.69575 -1.544684,1.54611 0,0.85036 -0.463407,1.54609 -1.02979,1.54609 -0.566387,0 -1.029791,-1.58472 -1.029791,-3.52165 z m 4.119158,-1.632 c 0,-0.56691 -0.463403,-1.03074 -1.02979,-1.03074 -0.566382,0 -1.029786,0.46383 -1.029786,1.03074 0,0.56688 0.463404,1.03072 1.029786,1.03072 0.566387,0 1.02979,-0.46384 1.02979,-1.03072 z m 3.08937,3.17652 c 0,-1.08746 -0.281271,-2.71088 -0.625073,-3.60759 -0.483268,-1.26055 0.04237,-1.61397 2.317029,-1.55795 2.456469,0.0605 2.609676,0.20272 0.928192,0.86088 -1.998683,0.78249 -1.998683,0.79729 0,1.95767 1.98822,1.15434 1.987639,1.17008 -0.04568,1.23335 -2.032317,0.0635 -2.03312,0.0845 -0.06062,1.57748 1.953516,1.47891 1.947661,1.51329 -0.257463,1.51329 -1.53781,0 -2.256407,-0.62966 -2.256407,-1.97713 z m 5.705417,-0.95924 c -0.833078,-3.75981 0.41159,-5.94928 2.849696,-5.01283 0.816764,0.31366 1.694451,1.9987 1.950438,3.74441 0.470047,3.20557 -0.481949,4.20077 -1.869199,1.95407 -0.515508,-0.83487 -0.976322,-0.59081 -1.459709,0.77306 -0.583128,1.64525 -0.839869,1.39068 -1.471226,-1.45871 z m 3.047799,-2.21728 c 0.350045,-0.56691 0.145683,-1.03074 -0.45413,-1.03074 -0.5998,0 -1.090556,0.46383 -1.090556,1.03074 0,0.56688 0.204362,1.03072 0.454117,1.03072 0.249767,0 0.740523,-0.46384 1.090569,-1.03072 z m -30.231428,3.20519 c -0.9653,-0.61222 -1.178791,-1.88204 -0.690521,-4.1072 0.708372,-3.22811 2.868501,-4.26143 4.245751,-2.03093 0.455248,0.73729 0.282473,0.91017 -0.454118,0.45451 -0.653899,-0.4045 -1.188903,-0.24435 -1.188903,0.35604 0,0.60036 0.463406,1.09157 1.02979,1.09157 0.566383,0 1.029791,0.51346 1.029791,1.14102 0,0.62755 -0.69511,0.87405 -1.544685,0.54772 -2.097713,-0.80572 -1.950871,0.35235 0.257464,2.0301 1.454949,1.10547 1.504547,1.37254 0.257463,1.38628 -0.849575,0.0113 -2.173476,-0.3818 -2.941999,-0.8692 z m 41.250168,-1.34987 c -1.581656,-1.5831 -1.581656,-4.18901 0,-5.77211 1.499562,-1.50095 3.913195,-1.6281 3.913195,-0.20603 0,0.56688 -0.695094,1.03073 -1.544675,1.03073 -0.858162,0 -1.544676,0.91617 -1.544676,2.06146 0,1.39399 0.686514,2.06147 2.120354,2.06147 1.16619,0 1.833953,0.46384 1.483913,1.03072 -0.861528,1.39527 -2.924103,1.29924 -4.428111,-0.20603 z m -46.719195,-0.5324 c 2.271003,-0.43288 2.307558,-0.56198 0.671462,-2.3715 -0.951665,-1.05255 -1.425853,-2.40681 -1.053752,-3.00941 0.857344,-1.38849 4.674156,-1.44153 4.674156,-0.065 0,0.56688 -0.787787,1.03072 -1.750641,1.03072 -1.36161,0 -1.476031,0.27495 -0.514893,1.23688 2.15625,2.15825 1.409325,3.92542 -1.596178,3.77643 -2.551576,-0.12639 -2.594161,-0.18575 -0.430154,-0.59818 z m 52.774278,-1.73903 c -2.214704,-2.671 -0.922903,-5.21997 2.82856,-5.5812 3.29405,-0.31734 3.39783,-0.21303 3.08092,3.09223 -0.24452,2.55052 -0.87467,3.49865 -2.47764,3.72785 -1.18231,0.16917 -2.72666,-0.38842 -3.43184,-1.23888 z m 5.06665,-1.0457 c 0,-0.237 -0.28128,-1.16474 -0.62508,-2.06148 -0.89545,-2.33567 -3.49408,-2.01508 -3.49408,0.43109 0,1.37431 0.68652,2.06146 2.05958,2.06146 1.13277,0 2.05958,-0.19386 2.05958,-0.43107 z m -69.309442,-0.96428 c -0.440892,-1.14834 -1.346504,-1.67531 -2.269617,-1.32079 -0.844803,0.32433 -1.520588,0.25652 -1.501746,-0.15075 0.04136,-0.89413 3.699387,-5.37902 4.387309,-5.37902 0.936683,0 1.376774,3.62945 0.749902,6.18442 -0.558158,2.2749 -0.718194,2.35296 -1.365848,0.66611 z m -6.910759,-2.77913 c -0.01162,-1.88157 -0.250007,-2.15494 -0.93468,-1.07239 -0.767214,1.21303 -1.444621,1.23492 -4.103389,0.13268 -3.138143,-1.30104 -4.300671,-4.38095 -2.154688,-5.70845 0.566382,-0.35051 1.029787,-1.10507 1.029787,-1.67713 0,-0.57205 -1.345899,-0.0807 -2.99089,1.09159 -1.644989,1.17241 -3.266908,2.13165 -3.604262,2.13165 -1.021817,0 -0.605805,-2.40126 0.982146,-5.66907 l 1.502624,-3.09219 -0.37648,2.83453 c -0.403036,3.03443 0.270906,3.54983 2.164032,1.65496 0.884749,-0.88555 1.95944,-0.85573 4.312029,0.11981 3.210521,1.33104 3.488742,3.56554 0.294847,2.36799 -1.601043,-0.60028 -1.622373,-0.47972 -0.224462,1.26877 1.397903,1.74846 1.376574,1.86902 -0.224462,1.2687 -2.447661,-0.91772 -3.139546,0.64057 -0.904672,2.03755 1.521615,0.95114 2.118284,0.64847 3.569551,-1.81055 2.364006,-4.00561 5.231701,-3.0427 4.333,1.45491 -0.841017,4.20894 -2.649113,6.01492 -2.670021,2.66687 z m 2.075347,-4.0714 c 0,-0.56688 -0.463404,-1.03074 -1.029791,-1.03074 -0.566383,0 -1.029787,0.46386 -1.029787,1.03074 0,0.56689 0.463404,1.03072 1.029787,1.03072 0.566387,0 1.029791,-0.46383 1.029791,-1.03072 z m 81.806534,2.97273 c -1.38377,-2.6784 -1.43501,-3.3999 -0.29282,-4.12446 0.76138,-0.483 1.84774,-0.84867 2.41412,-0.81259 0.56639,0.0368 0.45055,0.29965 -0.25743,0.58548 -0.70797,0.286 -1.28723,0.99468 -1.28723,1.57503 0,0.5803 0.6951,0.78813 1.54468,0.4618 1.87829,-0.72142 2.01241,0.49967 0.25746,2.3439 -1.05015,1.1036 -0.86049,1.22371 1.02979,0.65206 2.85587,-0.86361 3.02957,0.015 0.29285,1.48076 -1.72715,0.9252 -2.27031,0.60795 -3.70137,-2.16198 z m 5.31922,-2.85181 c -1.51369,-2.85679 -1.59735,-3.64533 -0.46309,-4.36485 2.06909,-1.31254 2.33841,-1.18498 4.94325,2.3415 2.34515,3.1749 2.35097,3.23801 0.24786,2.68751 -1.47072,-0.38494 -2.26891,-0.0259 -2.51712,1.1294 -0.25715,1.19786 -0.90381,0.67328 -2.2109,-1.79356 z m 1.95105,-2.18239 c 0.35004,-0.56689 0.14568,-1.03072 -0.45412,-1.03072 -0.59982,0 -1.09057,0.46383 -1.09057,1.03072 0,0.5669 0.20437,1.03073 0.45412,1.03073 0.24977,0 0.74052,-0.46383 1.09057,-1.03073 z m 4.04107,-0.48997 c -1.74732,-2.66922 -1.39093,-5.69445 0.67084,-5.69445 0.64475,0 0.9146,0.67212 0.59966,1.49362 -0.38273,0.99829 -0.0778,1.30354 0.91962,0.92045 0.82071,-0.31513 1.49223,-0.0597 1.49223,0.56789 0,0.62756 -0.46341,1.141 -1.02979,1.141 -0.56639,0 -1.02979,0.49506 -1.02979,1.10017 0,0.63113 0.8781,0.82123 2.05958,0.44593 2.64287,-0.83959 2.66493,0.11867 0.0351,1.52726 -1.67281,0.8961 -2.3185,0.63523 -3.71751,-1.50187 z m -59.134814,-1.4513 c 0,-4.1666 -0.354698,-5.12627 -2.05958,-5.57253 -1.849777,-0.48415 -2.059579,-0.0332 -2.059579,4.44251 0,3.87763 0.399359,5.08607 1.802132,5.45296 0.991173,0.25911 1.917982,0.52522 2.059581,0.59096 0.141603,0.0656 0.257462,-2.1455 0.257462,-4.9139 z m -2.829675,-0.63556 c 0.01138,-2.26763 0.222322,-3.07391 0.468634,-1.79178 0.246329,1.28213 0.236967,3.13746 -0.02074,4.12293 -0.257765,0.98551 -0.459281,-0.0635 -0.447853,-2.33115 z m 5.919043,0.96989 c 0,-1.95072 -0.463405,-3.54675 -1.029791,-3.54675 -0.566382,0 -1.02979,1.88271 -1.02979,4.18377 0,2.5267 0.40787,3.93147 1.02979,3.54676 0.566386,-0.35053 1.029791,-2.23307 1.029791,-4.18378 z m 5.148949,1.72964 c 0,-1.39027 -0.30491,-2.22257 -0.677593,-1.84954 -0.372678,0.37303 -1.299487,0.16181 -2.059579,-0.46978 -1.102244,-0.91562 -1.381986,-0.54123 -1.381986,1.84955 0,2.31039 0.472138,2.99754 2.059576,2.99754 1.499696,0 2.059582,-0.68715 2.059582,-2.52777 z m 3.089369,-1.21428 c 0,-2.52669 -0.40787,-3.93146 -1.029791,-3.54675 -1.743821,1.07876 -1.153093,7.73052 0.686528,7.73052 0.188784,0 0.343263,-1.8827 0.343263,-4.18377 z m -19.566003,-3.09219 0,-5.09285 -3.604266,0 -3.604261,0 0,5.21451 c 0,2.868 0.347552,5.01327 0.772341,4.76729 0.424787,-0.24583 1.699151,-0.0996 2.83192,0.32545 3.070637,1.15213 3.604266,0.38011 3.604266,-5.21452 z m 3.089367,1.09158 c 0,-2.83453 -0.463404,-5.15369 -1.02979,-5.15369 -0.566383,0 -1.029788,2.31916 -1.029788,5.15369 0,2.8345 0.463405,5.15366 1.029788,5.15366 0.566386,0 1.02979,-2.31916 1.02979,-5.15366 z m 24.43148,-3.33143 c -0.229168,-1.8526 -0.421435,-0.58539 -0.427215,2.81607 -0.0055,3.40141 0.18172,4.91717 0.41671,3.36831 0.234961,-1.54882 0.2397,-4.33178 0.0109,-6.18438 z m 5.516636,7.45435 c 0.520068,0 0.945571,-2.54814 0.945571,-5.66257 0,-5.28877 -0.152942,-5.6395 -2.317029,-5.31276 -2.051098,0.3096 -2.352916,1.03378 -2.629777,6.30944 -0.271039,5.16501 -0.08821,5.87342 1.371458,5.3128 0.926327,-0.35566 2.109722,-0.64691 2.629777,-0.64691 z m 4.034943,-5.09284 c 0,-2.80106 -0.463404,-5.37951 -1.029796,-5.72987 -0.639343,-0.39551 -1.029782,1.53541 -1.029782,5.09284 0,3.15143 0.463404,5.72987 1.029782,5.72987 0.566392,0 1.029796,-2.29177 1.029796,-5.09284 z m 1.767379,-3.92607 c -0.235968,-1.559 -0.429003,-0.28343 -0.429003,2.83449 0,3.118 0.193059,4.39353 0.429003,2.83453 0.235956,-1.55899 0.235956,-4.11006 0,-5.66902 z m 5.956036,2.42185 c 0,-3.3771 -0.37066,-4.07686 -2.31702,-4.37415 -2.116004,-0.32323 -2.31702,0.0542 -2.31702,4.3496 0,4.28815 0.204586,4.67444 2.31702,4.37414 1.95055,-0.27716 2.31702,-0.96521 2.31702,-4.34959 z m -20.886309,-4.17095 c 2.779362,-1.16209 7.43602,-1.60293 16.99153,-1.60857 11.917619,-0.008 25.018629,-1.30314 27.273819,-2.69823 0.4808,-0.29744 -0.29631,-1.93306 -1.72688,-3.63477 l -2.60106,-3.09404 0,-45.522641 0,-45.5226816 -5.68271,6.3409916 c -5.98193,6.67484 -5.76331,6.598951 -14.39817,4.998232 l -4.119163,-0.763594 3.604267,3.49441 3.604266,3.494376 2.57447,-2.090692 2.57448,-2.090727 -2.422,2.755103 c -3.08168,3.505542 -5.48578,3.072625 -10.8832,-1.9597 -2.293274,-2.138199 -4.380835,-4.014604 -4.639013,-4.169808 -0.258163,-0.155159 0.222457,-0.974746 1.068067,-1.821121 1.165766,-1.166844 2.271332,-1.306125 4.572763,-0.576068 1.669399,0.529591 4.279703,1.234436 5.800653,1.566367 l 2.76538,0.603527 -2.1157,-6.270706 c -2.18452,-6.4746726 -1.61729,-9.3193744 1.49532,-7.4992122 3.68766,2.1564424 8.99176,7.0408992 8.99176,8.2803862 0,2.052176 -1.5576,1.650403 -5.06993,-1.307744 -3.68577,-3.1042104 -3.8242,-2.671958 -1.28625,4.016778 l 1.88046,4.955885 5.84213,-6.660393 c 3.89424,-4.43967 5.84212,-7.5526514 5.84212,-9.3365113 l 0,-2.6761199 -9.62206,0 -9.62209,0 -6.951404,8.2449662 c -3.823275,4.534763 -7.487081,8.557034 -8.141792,8.938426 -1.236184,0.72014 0.612524,-1.628436 6.191866,-7.866193 1.794695,-2.006473 4.261218,-4.9236729 5.48115,-6.4826689 l 2.21803,-2.8345303 -37.662058,0 -37.662063,0 0,43.2585452 c 0,38.028557 0.186745,43.186779 1.544685,42.665227 0.849576,-0.32618 1.549288,-0.891561 1.554913,-1.256072 0.0056,-0.364512 2.834382,-3.677662 6.286128,-7.362547 l 6.2759,-6.69979 -6.433251,7.730523 c -3.538288,4.251775 -9.016428,10.670086 -12.173647,14.262906 -9.435643,10.737441 -9.281646,10.119281 -3.001226,12.047611 3.178006,0.97582 12.267833,2.04867 21.908236,2.58582 18.925182,1.05447 23.008233,1.85976 27.589997,5.44136 l 3.30369,2.58257 2.574477,-2.42906 c 1.415962,-1.33597 4.29736,-3.14943 6.40311,-4.02982 z M 34.067327,109.0613 c 0,-0.17728 1.506067,-1.68487 3.346815,-3.34989 l 3.346815,-3.02737 -3.024584,3.3499 c -2.819339,3.12256 -3.669046,3.82364 -3.669046,3.02736 z m -2.682142,-6.11956 c -4.302502,-3.371165 -6.585966,-5.783421 -6.585966,-6.957486 0,-1.981862 2.357538,-1.001183 6.416312,2.669076 l 4.091463,3.69978 2.871468,-2.753596 c 1.854509,-1.778332 3.11958,-2.351712 3.572038,-1.618965 0.430347,0.696956 2.502016,-0.761309 5.370989,-3.780749 4.32941,-4.556428 4.279157,-4.445058 -0.688259,1.525346 -2.947273,3.542358 -5.714857,6.220324 -6.150193,5.951054 -0.435326,-0.26943 -1.62037,0.42709 -2.633422,1.54752 -2.316085,2.56158 -2.654667,2.54636 -6.26443,-0.28195 z m 48.891723,-3.061193 c -2.583944,-1.95628 -2.826706,-1.968738 -5.406397,-0.276797 -2.862592,1.87737 -3.530048,0.88784 -1.704318,-2.526705 0.751597,-1.405667 0.49839,-2.315293 -1.029787,-3.699551 -2.811886,-2.547046 -2.534732,-3.577558 0.962185,-3.577558 2.42664,0 3.22571,-0.629918 4.249405,-3.349897 l 1.260779,-3.349897 1.001841,3.865263 c 0.924789,3.56797 1.290982,3.867771 4.761259,3.898031 3.906175,0.03319 3.728934,0.495085 -1.374485,3.574792 -1.417768,0.855582 -1.515538,1.536736 -0.575282,4.008228 1.436616,3.776214 1.177273,3.949584 -2.1452,1.434166 z M 42.305644,92.376688 c -0.853144,-1.028928 -3.16311,-1.546101 -6.905542,-1.546101 -4.051078,0 -5.49839,-0.360459 -5.175908,-1.288427 0.289161,-0.832259 1.981773,-1.170124 4.780788,-0.954329 l 4.333131,0.333921 -0.318352,-4.682334 c -0.411892,-6.057824 1.435329,-6.237611 2.771001,-0.269792 0.566385,2.530648 1.841759,5.495095 2.834167,6.587672 0.992408,1.092539 1.494433,2.296687 1.115607,2.675865 -1.067936,1.068917 -2.039061,0.826692 -3.434878,-0.856701 z m 14.165057,-9.276619 5.339176,-6.184388 -4.34572,-0.696665 c -2.390149,-0.383161 -5.504235,-0.729944 -6.920198,-0.770633 -2.548799,-0.07334 -2.541098,-0.04533 0.772343,2.789269 3.412522,2.919485 4.376746,5.415265 2.059578,5.330976 -0.707977,-0.02581 -3.321423,-2.052471 -5.807654,-4.50384 -5.837584,-5.755671 -5.095738,-7.268045 3.109372,-6.338891 3.324805,0.376528 6.045101,0.399673 6.045101,0.05159 0,-0.348295 -1.39146,-1.804976 -3.092134,-3.237336 -2.729638,-2.298928 -3.31528,-4.477816 -1.203561,-4.477816 0.402438,0 2.898079,1.884551 5.545866,4.187867 3.291956,2.863647 4.61411,4.709646 4.181469,5.83812 -0.470654,1.22762 -0.258199,1.421117 0.829541,0.755524 1.85579,-1.135589 -6.25424,8.622931 -9.457009,11.379325 -1.317438,1.133782 0.0074,-0.721542 2.94383,-4.122962 z M 29.304218,80.042925 C 28.954624,79.131056 29.427164,77.546002 30.354306,76.520578 31.870583,74.843567 31.969922,71.5278 31.342624,43.533376 30.959057,26.41581 30.256688,12.170185 29.781801,11.876438 27.73961,10.61314 29.206449,9.4024388 32.780091,9.4017386 l 3.861711,-7.367e-4 -0.26823,30.1497611 c -0.180258,20.262833 0.06784,29.642761 0.756575,28.603664 0.563637,-0.850356 1.031898,-2.562345 1.04057,-3.80445 0.0086,-1.242065 0.479173,-2.544983 1.045555,-2.895342 0.566387,-0.350506 1.029791,0.11352 1.029791,1.030733 0,0.993506 0.478344,1.371875 1.183165,0.935861 1.457843,-0.901807 0.276456,-49.864204 -1.239983,-51.390326 -2.128896,-2.1425459 -0.595551,-2.6283913 8.295136,-2.6283913 5.492212,0 9.268107,0.4199451 9.268107,1.0307323 0,0.56689 -0.532799,1.030731 -1.183994,1.030731 -1.490632,0 -0.394494,18.000946 1.210302,19.875728 0.590548,0.689882 1.702262,2.163667 2.470477,3.27504 1.206732,1.745787 1.762344,1.853961 4.084037,0.795144 3.831408,-1.747297 3.824295,-7.608673 -0.01233,-10.240529 -8.076301,-5.540062 -9.584608,-9.74938 -5.101403,-14.23667 2.095938,-2.0978776 3.418567,-2.4748098 8.238318,-2.3479132 l 5.741527,0.1511178 0,4.9715504 c 0,3.732023 -0.385137,4.971585 -1.544688,4.971585 -1.073051,0 -1.544684,-1.080267 -1.544684,-3.538123 0,-3.712344 -2.186725,-5.3853015 -5.41729,-4.144449 -3.164768,1.21553 -2.613486,7.682572 0.654901,7.682572 2.746811,0 5.793072,4.672124 5.755689,8.827669 -0.0436,4.848263 -1.079344,6.833765 -7.172037,13.748909 -2.548727,2.892763 -6.568786,7.45749 -8.933464,10.143782 -2.364676,2.68633 -4.650809,4.532476 -5.080295,4.102617 -0.429485,-0.429894 -0.232519,-1.330485 0.437698,-2.001312 1.223246,-1.224376 1.82105,-20.391389 0.635993,-20.391389 -0.320425,0 -1.478941,0.480167 -2.574475,1.066998 -1.764732,0.945335 -1.991882,2.238301 -1.991882,11.338083 0,6.160248 0.412159,10.271122 1.029791,10.271122 2.267287,0 0.807502,3.958102 -3.059807,8.296456 -2.249278,2.523239 -6.421799,7.519702 -9.272263,11.10327 -3.925771,4.935392 -5.336825,6.113476 -5.818302,4.857587 z M 49.778082,29.759662 c 1.417453,-1.082332 1.590115,-2.648552 1.079464,-9.791949 -0.52756,-7.379906 -0.860598,-8.503591 -2.520314,-8.503591 -1.729174,0 -1.912432,0.938295 -1.912432,9.791986 0,5.385596 0.374837,9.791986 0.832969,9.791986 0.45813,0 1.59227,-0.57979 2.520313,-1.288432 z M 93.276183,79.50541 c 0.491586,-1.550264 0.130535,-2.661858 -1.189796,-3.663252 -1.81452,-1.376187 -1.803234,-1.439027 0.264123,-1.470393 1.225542,-0.01844 2.60733,-1.03589 3.194679,-2.351931 l 1.035009,-2.319162 0.736433,2.319162 c 0.453782,1.429041 1.561534,2.319129 2.886219,2.319129 2.0287,0 2.0524,0.107623 0.42067,1.912414 -1.097243,1.213577 -1.461434,2.626032 -0.996592,3.865262 0.636862,1.697762 0.514202,1.775234 -0.939125,0.592913 -1.297841,-1.055832 -2.168775,-1.093684 -3.894528,-0.169173 -2.015002,1.079419 -2.156864,0.982634 -1.517104,-1.034896 z m 20.306927,-2.792958 c -1.88175,-1.312904 -2.8637,-1.408179 -4.90739,-0.476149 -2.41145,1.099764 -2.51826,1.018974 -1.90209,-1.438329 0.44262,-1.765099 0.0647,-3.25403 -1.17348,-4.623474 -1.77065,-1.958339 -1.7422,-2.019926 0.93323,-2.019926 2.01328,0 3.03064,-0.713653 3.76194,-2.638859 1.08784,-2.863905 3.06579,-2.524233 3.06579,0.52646 0,1.176869 1.01408,2.143653 2.69008,2.564702 2.58027,0.648198 2.61712,0.756445 0.90283,2.652459 -1.10769,1.225114 -1.59748,2.970163 -1.28817,4.589603 0.27447,1.437149 0.44745,2.588661 0.38439,2.558918 -0.063,-0.02948 -1.17326,-0.792674 -2.46713,-1.695405 z M 66.570485,71.044388 c 1.663521,-1.812016 3.603838,-3.932377 4.311819,-4.71193 2.746635,-3.024268 1.106967,-2.530352 -2.177378,0.655899 l -3.464612,3.3611 -5.031152,-4.333303 c -2.767131,-2.383294 -5.153285,-4.635379 -5.302565,-5.004647 -0.437855,-1.08303 6.864988,-7.730965 7.64021,-6.955023 0.388305,0.388654 -0.386403,1.870546 -1.721578,3.293064 -1.857686,1.979235 -2.143888,2.870391 -1.219121,3.796008 0.92477,0.925617 1.790557,0.662239 3.687945,-1.121877 1.363711,-1.282316 2.75496,-1.885327 3.091668,-1.340032 0.336706,0.545292 -0.0778,1.564635 -0.92115,2.265206 -0.843341,0.700533 -1.533346,1.885287 -1.533346,2.632776 0,2.431947 1.982499,2.663663 4.300006,0.502577 2.541984,-2.370396 3.938311,-2.697829 3.938311,-0.923553 0,0.667435 1.002022,0.327655 2.28078,-0.773068 1.58852,-1.367563 1.391253,-0.868562 -0.649926,1.644026 -5.44461,6.702076 -8.772907,10.307352 -9.51548,10.307352 -0.40646,0 0.622043,-1.482557 2.285569,-3.294575 z M 47.084612,65.412074 C 69.768451,38.399546 76.944277,30.123362 78.133816,29.601657 79.141503,29.159746 63.731501,47.87523 60.817736,50.632066 c -0.299594,0.283427 -3.081296,3.525333 -6.181583,7.204173 -3.100281,3.678841 -7.656986,8.781008 -10.126012,11.338083 -2.469029,2.55711 -1.310513,0.864102 2.574471,-3.762248 z m 38.475233,-6.585683 c -0.0013,-0.878698 -0.559119,-2.154231 -1.238787,-2.834493 -0.961131,-0.962029 -0.858087,-1.236906 0.463718,-1.236906 0.93471,0 2.185906,-0.811693 2.780432,-1.803763 1.029494,-1.717885 1.132442,-1.717885 2.161922,0 0.594526,0.99207 1.809782,1.803763 2.700578,1.803763 1.31672,0 1.381891,0.286743 0.348511,1.532975 -0.699105,0.843168 -1.033946,2.15154 -0.7441,2.90758 0.378372,0.986908 -0.459541,1.353964 -2.971137,1.301518 -2.440291,-0.05088 -3.499027,-0.55613 -3.501137,-1.670674 z M 68.682888,54.76767 c -2.671726,-2.594152 -4.524891,-5.049757 -4.118145,-5.456876 1.13213,-1.133156 2.152441,-0.896647 3.96701,0.919608 1.524502,1.5259 1.862616,1.421965 4.191457,-1.288433 3.069393,-3.572252 3.101157,-3.980989 0.453643,-5.837088 -1.694427,-1.187925 -1.826696,-1.671779 -0.710456,-2.599054 1.056508,-0.877629 2.481086,-0.11978 6.201217,3.298776 2.656282,2.440975 4.829613,5.056578 4.829613,5.81247 0,0.867641 1.025139,0.453077 2.780638,-1.124495 1.529345,-1.374346 0.30805,0.516065 -2.714015,4.200951 -3.657392,4.459536 -6.251792,6.715012 -7.758972,6.745272 -1.336414,0.02581 -4.254949,-1.887316 -7.12199,-4.671131 z m 14.000275,-3.891834 c -0.705255,-0.235146 -1.936026,-1.082148 -2.735032,-1.881899 -1.981564,-1.9834 -2.531877,-1.860667 -5.361634,1.195482 l -2.453269,2.649547 2.335182,2.934484 2.335185,2.934485 3.580933,-3.702135 c 2.256872,-2.333279 3.106796,-3.860323 2.298635,-4.129964 z m 1.472899,-10.937637 c -1.046259,-2.905404 -2.138514,-6.558079 -2.427223,-8.117038 -0.453513,-2.448788 -0.193732,-2.828595 1.908962,-2.790855 7.938696,0.142637 17.634229,4.510916 10.290052,4.636338 -3.421093,0.05861 -6.616864,4.269061 -5.778295,7.61332 0.362948,1.44743 1.136044,2.926229 1.717996,3.286207 0.581952,0.360089 -0.03712,0.654536 -1.375554,0.654536 -1.994309,0 -2.777061,-0.953628 -4.335938,-5.282508 z m 4.490115,-6.834612 c 0,-0.431371 -0.926807,-1.026898 -2.059578,-1.32341 -2.15936,-0.565196 -2.478942,0.06707 -1.424425,2.817501 0.49162,1.282317 0.957064,1.389309 2.059578,0.473462 0.783437,-0.650778 1.424425,-1.536184 1.424425,-1.967553 z m 3.7021,8.012844 c 1.078955,-1.26525 3.996792,-4.396107 6.48408,-6.957457 3.013173,-3.102881 2.541643,-2.335196 -1.413002,2.300479 -3.264437,3.826599 -6.182261,6.957454 -6.484065,6.957454 -0.301804,0 0.334033,-1.03519 1.412987,-2.300476 z m 12.767393,-0.257628 c 0.79312,-2.087962 0.5992,-2.757573 -1.05527,-3.643828 -2.84606,-1.524571 -2.52141,-3.07476 0.64393,-3.07476 1.80482,0 2.84551,-0.668432 3.20946,-2.061463 0.72111,-2.760005 2.13594,-2.616671 2.54378,0.257627 0.21306,1.501428 0.93713,2.218657 2.05356,2.034116 2.38445,-0.394107 3.20653,1.332034 1.36351,2.863019 -0.96089,0.798166 -1.29573,2.173434 -0.90682,3.724361 0.66738,2.661488 -0.49823,3.215736 -2.51582,1.196289 -0.99541,-0.996307 -1.68746,-0.996307 -3.28136,0 -2.8595,1.787435 -3.1552,1.601013 -2.05497,-1.295435 z M 81.441391,25.378998 c 1.413904,-1.700748 2.686578,-3.28547 2.82818,-3.521685 0.141601,-0.236251 0.484318,-0.202342 0.761604,0.07519 0.277285,0.277531 -0.995401,1.862327 -2.82818,3.521685 l -3.332335,3.017081 2.570731,-3.092196 z M 30.6618,112.75348 c -0.261108,-1.00286 -0.491891,-0.43192 -0.512876,1.26879 -0.02107,1.70071 0.192628,2.52125 0.47472,1.8234 0.282072,-0.69783 0.299258,-2.08932 0.03815,-3.09219 z m 84.85746,1.04654 c 3.5833,-2.11862 3.82904,-3.13387 0.67378,-2.78358 -1.27436,0.14152 -2.89628,0.29595 -3.60427,0.34313 -1.24726,0.0833 -1.90772,4.20883 -0.67378,4.20883 0.33741,0 1.95931,-0.79573 3.60427,-1.76834 z m -90.720041,-1.83921 c 0,-0.90391 -0.93724,-1.5461 -2.256404,-1.5461 -2.205112,0 -2.210963,0.0332 -0.257462,1.51334 2.506887,1.89781 2.51385,1.89792 2.51385,0.0332 z"
     id="path3049"
     inkscape:connector-curvature="0" />
</svg>
